<svg width="22" height="18" viewBox="0 0 22 18" fill="none" xmlns="http://www.w3.org/2000/svg">
<path d="M21.94 8.34C21.69 6.83 20.58 5.6 19.13 5.17C18.6 4.05 17.85 3.07 16.94 2.26C15.36 0.85 13.28 0 11 0C8.72 0 6.64 0.85 5.06 2.26C4.14 3.07 3.39 4.06 2.87 5.17C1.42 5.6 0.31 6.82 0.0599999 8.34C0.0199999 8.55 0 8.77 0 9C0 9.23 0.0199999 9.45 0.0599999 9.66C0.31 11.17 1.42 12.4 2.87 12.83C3.39 13.94 4.14 14.92 5.04 15.72C6.62 17.14 8.71 18 11 18C13.29 18 15.38 17.14 16.97 15.72C17.87 14.92 18.62 13.93 19.14 12.83C20.58 12.4 21.69 11.18 21.94 9.66C21.98 9.45 22 9.23 22 9C22 8.77 21.98 8.55 21.94 8.34ZM18 11C17.9 11 17.81 10.98 17.71 10.97C17.51 11.64 17.22 12.26 16.85 12.83C15.6 14.74 13.45 16 11 16C8.55 16 6.4 14.74 5.15 12.83C4.78 12.26 4.49 11.64 4.29 10.97C4.19 10.98 4.1 11 4 11C2.9 11 2 10.1 2 9C2 7.9 2.9 7 4 7C4.1 7 4.19 7.02 4.29 7.03C4.49 6.36 4.78 5.74 5.15 5.17C6.4 3.26 8.55 2 11 2C13.45 2 15.6 3.26 16.85 5.17C17.22 5.74 17.51 6.36 17.71 7.03C17.81 7.02 17.9 7 18 7C19.1 7 20 7.9 20 9C20 10.1 19.1 11 18 11ZM11 14C13.01 14 14.74 12.77 15.5 11H6.5C7.26 12.77 8.99 14 11 14Z" fill="white"/>
</svg>
